<mxfile host="app.diagrams.net" modified="2020-10-20T07:47:21.037Z" agent="5.0 (Windows NT 6.1; Win64; x64) AppleWebKit/537.36 (KHTML, like Gecko) Chrome/86.0.4240.75 Safari/537.36" etag="WYtn07dJYcn0a3nu2twS" version="13.8.0" type="github">
  <diagram id="C5RBs43oDa-KdzZeNtuy" name="Page-1">
    <mxGraphModel dx="868" dy="482" grid="1" gridSize="10" guides="1" tooltips="1" connect="1" arrows="1" fold="1" page="1" pageScale="1" pageWidth="827" pageHeight="1169" math="0" shadow="0">
      <root>
        <mxCell id="WIyWlLk6GJQsqaUBKTNV-0" />
        <mxCell id="WIyWlLk6GJQsqaUBKTNV-1" parent="WIyWlLk6GJQsqaUBKTNV-0" />
        <mxCell id="4v21OAVjkvmy5geU1LkU-0" value="FISH" style="swimlane;fontStyle=1;align=center;verticalAlign=top;childLayout=stackLayout;horizontal=1;startSize=26;horizontalStack=0;resizeParent=1;resizeParentMax=0;resizeLast=0;collapsible=1;marginBottom=0;" vertex="1" parent="WIyWlLk6GJQsqaUBKTNV-1">
          <mxGeometry x="80" y="40" width="170" height="160" as="geometry" />
        </mxCell>
        <mxCell id="4v21OAVjkvmy5geU1LkU-1" value="+color:string" style="text;strokeColor=none;fillColor=none;align=left;verticalAlign=top;spacingLeft=4;spacingRight=4;overflow=hidden;rotatable=0;points=[[0,0.5],[1,0.5]];portConstraint=eastwest;" vertex="1" parent="4v21OAVjkvmy5geU1LkU-0">
          <mxGeometry y="26" width="170" height="26" as="geometry" />
        </mxCell>
        <mxCell id="4v21OAVjkvmy5geU1LkU-2" value="" style="line;strokeWidth=1;fillColor=none;align=left;verticalAlign=middle;spacingTop=-1;spacingLeft=3;spacingRight=3;rotatable=0;labelPosition=right;points=[];portConstraint=eastwest;" vertex="1" parent="4v21OAVjkvmy5geU1LkU-0">
          <mxGeometry y="52" width="170" height="8" as="geometry" />
        </mxCell>
        <mxCell id="4v21OAVjkvmy5geU1LkU-3" value="+Swim() : void&#xa;&#xa;+SetColor(warna: String):void&#xa;&#xa;+GetColor(): String" style="text;strokeColor=none;fillColor=none;align=left;verticalAlign=top;spacingLeft=4;spacingRight=4;overflow=hidden;rotatable=0;points=[[0,0.5],[1,0.5]];portConstraint=eastwest;" vertex="1" parent="4v21OAVjkvmy5geU1LkU-0">
          <mxGeometry y="60" width="170" height="100" as="geometry" />
        </mxCell>
        <mxCell id="4v21OAVjkvmy5geU1LkU-8" value="SHARK" style="swimlane;fontStyle=1;align=center;verticalAlign=top;childLayout=stackLayout;horizontal=1;startSize=26;horizontalStack=0;resizeParent=1;resizeParentMax=0;resizeLast=0;collapsible=1;marginBottom=0;" vertex="1" parent="WIyWlLk6GJQsqaUBKTNV-1">
          <mxGeometry x="520" y="40" width="190" height="200" as="geometry" />
        </mxCell>
        <mxCell id="4v21OAVjkvmy5geU1LkU-9" value="-sharpTeeth:int" style="text;strokeColor=none;fillColor=none;align=left;verticalAlign=top;spacingLeft=4;spacingRight=4;overflow=hidden;rotatable=0;points=[[0,0.5],[1,0.5]];portConstraint=eastwest;" vertex="1" parent="4v21OAVjkvmy5geU1LkU-8">
          <mxGeometry y="26" width="190" height="26" as="geometry" />
        </mxCell>
        <mxCell id="4v21OAVjkvmy5geU1LkU-10" value="" style="line;strokeWidth=1;fillColor=none;align=left;verticalAlign=middle;spacingTop=-1;spacingLeft=3;spacingRight=3;rotatable=0;labelPosition=right;points=[];portConstraint=eastwest;" vertex="1" parent="4v21OAVjkvmy5geU1LkU-8">
          <mxGeometry y="52" width="190" height="8" as="geometry" />
        </mxCell>
        <mxCell id="4v21OAVjkvmy5geU1LkU-11" value="+Eat():void&#xa;&#xa;+SetSharpTeeth(teeth:int):void&#xa;&#xa;+Swim():void&#xa;&#xa;+Swim(fin:itt):void&#xa;&#xa;+Swim(x:double,y:double):void" style="text;strokeColor=none;fillColor=none;align=left;verticalAlign=top;spacingLeft=4;spacingRight=4;overflow=hidden;rotatable=0;points=[[0,0.5],[1,0.5]];portConstraint=eastwest;" vertex="1" parent="4v21OAVjkvmy5geU1LkU-8">
          <mxGeometry y="60" width="190" height="140" as="geometry" />
        </mxCell>
        <mxCell id="4v21OAVjkvmy5geU1LkU-12" value="AQUARIUM" style="swimlane;fontStyle=1;align=center;verticalAlign=top;childLayout=stackLayout;horizontal=1;startSize=26;horizontalStack=0;resizeParent=1;resizeParentMax=0;resizeLast=0;collapsible=1;marginBottom=0;" vertex="1" parent="WIyWlLk6GJQsqaUBKTNV-1">
          <mxGeometry x="80" y="400" width="170" height="144" as="geometry" />
        </mxCell>
        <mxCell id="4v21OAVjkvmy5geU1LkU-13" value="+lenght:int&#xa;&#xa;+height:int&#xa;&#xa;+width:int" style="text;strokeColor=none;fillColor=none;align=left;verticalAlign=top;spacingLeft=4;spacingRight=4;overflow=hidden;rotatable=0;points=[[0,0.5],[1,0.5]];portConstraint=eastwest;" vertex="1" parent="4v21OAVjkvmy5geU1LkU-12">
          <mxGeometry y="26" width="170" height="84" as="geometry" />
        </mxCell>
        <mxCell id="4v21OAVjkvmy5geU1LkU-14" value="" style="line;strokeWidth=1;fillColor=none;align=left;verticalAlign=middle;spacingTop=-1;spacingLeft=3;spacingRight=3;rotatable=0;labelPosition=right;points=[];portConstraint=eastwest;" vertex="1" parent="4v21OAVjkvmy5geU1LkU-12">
          <mxGeometry y="110" width="170" height="8" as="geometry" />
        </mxCell>
        <mxCell id="4v21OAVjkvmy5geU1LkU-15" value="+fillFish():void" style="text;strokeColor=none;fillColor=none;align=left;verticalAlign=top;spacingLeft=4;spacingRight=4;overflow=hidden;rotatable=0;points=[[0,0.5],[1,0.5]];portConstraint=eastwest;" vertex="1" parent="4v21OAVjkvmy5geU1LkU-12">
          <mxGeometry y="118" width="170" height="26" as="geometry" />
        </mxCell>
        <mxCell id="4v21OAVjkvmy5geU1LkU-16" value="" style="endArrow=diamondThin;endFill=0;endSize=24;html=1;entryX=0.482;entryY=1.01;entryDx=0;entryDy=0;entryPerimeter=0;" edge="1" parent="WIyWlLk6GJQsqaUBKTNV-1" target="4v21OAVjkvmy5geU1LkU-3">
          <mxGeometry width="160" relative="1" as="geometry">
            <mxPoint x="162" y="400" as="sourcePoint" />
            <mxPoint x="250" y="300" as="targetPoint" />
          </mxGeometry>
        </mxCell>
        <mxCell id="4v21OAVjkvmy5geU1LkU-20" value="Extends" style="endArrow=block;endSize=16;endFill=0;html=1;entryX=1.012;entryY=0.19;entryDx=0;entryDy=0;entryPerimeter=0;exitX=0;exitY=0.136;exitDx=0;exitDy=0;exitPerimeter=0;" edge="1" parent="WIyWlLk6GJQsqaUBKTNV-1" source="4v21OAVjkvmy5geU1LkU-11" target="4v21OAVjkvmy5geU1LkU-3">
          <mxGeometry width="160" relative="1" as="geometry">
            <mxPoint x="340" y="120" as="sourcePoint" />
            <mxPoint x="500" y="120" as="targetPoint" />
          </mxGeometry>
        </mxCell>
      </root>
    </mxGraphModel>
  </diagram>
</mxfile>
